<svg width="369" height="207" viewBox="0 0 369 207" fill="none" xmlns="http://www.w3.org/2000/svg">
<path d="M2.05389 90.2974V0H25.8203V38.5816C30.5149 37.1223 34.6227 35.0701 38.1437 32.425C41.7624 29.6887 44.8433 26.5876 47.3862 23.1216C49.9291 19.6556 52.0319 15.9617 53.6946 12.0397C55.3572 8.02643 56.6287 4.01322 57.5089 0H84.2095C83.0359 5.19894 81.3243 10.1243 79.0748 14.7759C76.9231 19.3364 74.1846 23.5321 70.8592 27.3629C67.5339 31.1937 63.6706 34.614 59.2694 37.6239C54.8682 40.5426 49.8802 42.9597 44.3054 44.8751V45.9696C50.2714 45.5135 55.2105 45.8784 59.1227 47.0641C63.0349 48.1586 66.2135 49.8004 68.6586 51.9894C71.1037 54.1785 73.0109 56.6867 74.3802 59.5142C75.8472 62.2505 77.0698 65.0324 78.0478 67.8599L85.8233 90.2974H59.4161L53.8413 70.1857C52.961 66.9022 51.6896 64.2571 50.0269 62.2505C48.462 60.1527 46.4081 58.6477 43.8652 57.7356C41.3223 56.8235 38.0948 56.3675 34.1826 56.3675H25.8203V90.2974H2.05389Z" fill="#D1232A"/>
<path d="M104.943 92.2128C101.031 92.2128 97.3145 91.5743 93.7936 90.2974C90.2726 89.0205 87.3874 86.9683 85.1379 84.1408C82.8884 81.2221 81.7636 77.3457 81.7636 72.5116C81.7636 68.0423 82.6928 64.4395 84.5511 61.7032C86.4093 58.8757 88.9034 56.6411 92.0331 54.9993C95.1628 53.2664 98.586 51.9894 102.303 51.1685C106.019 50.2564 109.687 49.4812 113.306 48.8427C118.391 47.9306 122.206 47.2009 124.749 46.6537C127.292 46.1064 129.003 45.4679 129.883 44.7383C130.861 44.0086 131.35 43.0053 131.35 41.7283C131.35 39.0833 130.275 37.0767 128.123 35.7085C126.069 34.3404 123.33 33.6563 119.907 33.6563C117.756 33.6563 115.604 34.0211 113.452 34.7508C111.301 35.4805 109.54 36.803 108.171 38.7184C106.802 40.5426 106.166 43.1877 106.264 46.6537L85.1379 45.2855C84.9423 39.5393 85.8714 34.7964 87.9253 31.0568C89.9792 27.226 92.7666 24.2617 96.2876 22.1639C99.9063 19.9749 103.819 18.4243 108.024 17.5122C112.327 16.6001 116.582 16.1441 120.788 16.1441C128.514 16.1441 134.871 17.5122 139.859 20.2485C144.847 22.8936 148.515 26.77 150.862 31.8777C153.307 36.8942 154.53 43.0053 154.53 50.2108V63.0714C154.53 66.0813 154.53 69.1368 154.53 72.2379C154.53 75.2478 154.53 78.2578 154.53 81.2677C154.53 84.2776 154.53 87.2875 154.53 90.2974H133.991C133.991 87.0139 133.991 83.6847 133.991 80.31C133.991 76.9352 133.991 73.3781 133.991 69.6385H133.111C132.72 73.7429 131.253 77.5281 128.71 80.994C126.265 84.3688 122.988 87.1051 118.88 89.2029C114.87 91.2095 110.225 92.2128 104.943 92.2128ZM114.773 76.0687C116.435 76.0687 118.196 75.7951 120.054 75.2478C122.01 74.6094 123.819 73.6061 125.482 72.2379C127.243 70.8698 128.661 69 129.737 66.6285C130.813 64.1659 131.35 61.156 131.35 57.5988V54.3153L135.312 53.9048C134.529 55.0905 133.209 56.0482 131.35 56.7779C129.59 57.5076 127.585 58.1005 125.335 58.5565C123.086 58.9213 120.788 59.3318 118.44 59.7878C116.191 60.1527 114.088 60.6999 112.132 61.4296C110.176 62.0681 108.562 62.9802 107.291 64.1659C106.117 65.2604 105.53 66.811 105.53 68.8176C105.53 71.189 106.41 73.0132 108.171 74.2901C110.029 75.4759 112.23 76.0687 114.773 76.0687Z" fill="#D1232A"/>
<path d="M191.495 92.2128C186.312 92.2128 181.471 91.7112 176.972 90.7079C172.57 89.7958 168.707 88.2908 165.382 86.193C162.154 84.0952 159.66 81.3133 157.9 77.8473C156.237 74.2901 155.552 70.0033 155.846 64.9868L176.531 63.345C176.727 66.3549 177.461 68.8632 178.732 70.8698C180.003 72.7852 181.764 74.1989 184.013 75.111C186.263 76.0231 189.001 76.4792 192.229 76.4792C195.261 76.4792 197.853 76.0231 200.004 75.111C202.254 74.1077 203.379 72.466 203.379 70.1857C203.379 69 202.987 68.0423 202.205 67.3126C201.423 66.4917 199.956 65.7621 197.804 65.1236C195.75 64.3939 192.718 63.573 188.708 62.6609C183.72 61.4752 179.221 60.2895 175.211 59.1038C171.201 57.918 167.778 56.5043 164.942 54.8625C162.105 53.2207 159.954 51.2141 158.487 48.8427C157.019 46.38 156.286 43.3701 156.286 39.813C156.286 34.7964 157.704 30.5552 160.54 27.0892C163.475 23.532 167.485 20.8414 172.57 19.0172C177.656 17.1018 183.524 16.1441 190.175 16.1441C196.141 16.1441 201.716 17.0106 206.9 18.7436C212.083 20.4765 216.142 23.304 219.076 27.226C222.108 31.148 223.233 36.347 222.451 42.8229L202.205 44.6014C202.498 41.9564 202.107 39.7217 201.031 37.8976C199.956 35.9822 198.391 34.5684 196.337 33.6563C194.283 32.653 191.789 32.1514 188.855 32.1514C185.529 32.1514 182.938 32.7442 181.079 33.9299C179.319 35.0245 178.439 36.4382 178.439 38.1712C178.439 39.5393 178.977 40.725 180.052 41.7283C181.226 42.6404 182.987 43.4613 185.334 44.191C187.779 44.8295 190.909 45.5591 194.723 46.38C198.048 47.0185 201.52 47.8394 205.139 48.8427C208.758 49.846 212.132 51.2141 215.262 52.9471C218.392 54.5889 220.935 56.7779 222.891 59.5142C224.847 62.2505 225.825 65.7165 225.825 69.9121C225.825 74.3814 224.504 78.3034 221.864 81.6781C219.223 85.0529 215.36 87.6523 210.274 89.4765C205.188 91.3007 198.929 92.2128 191.495 92.2128Z" fill="#D1232A"/>
<path d="M257.748 91.9392C248.653 91.9392 241.855 89.7958 237.356 85.5089C232.955 81.1309 230.754 74.3813 230.754 65.2604V35.2981H222.245V21.343H222.686C228.749 20.6133 233.053 18.7436 235.596 15.7336C238.139 12.6325 239.703 7.98083 240.29 1.77859V1.50495H254.227V18.0595H271.979V35.8453H254.227V63.2082C254.227 66.6741 255.108 69.1368 256.868 70.5962C258.726 72.0555 260.976 72.7852 263.617 72.7852C264.986 72.7852 266.404 72.6028 267.871 72.2379C269.338 71.8731 270.707 71.3714 271.979 70.733V90.0238C268.947 90.8447 266.257 91.3463 263.91 91.5287C261.563 91.8024 259.509 91.9392 257.748 91.9392Z" fill="#D1232A"/>
<path d="M307.715 92.2128C300.281 92.2128 293.68 90.8447 287.909 88.1084C282.139 85.2809 277.64 81.0853 274.412 75.5215C271.185 69.8665 269.571 62.7977 269.571 54.3153C269.571 45.4679 271.233 38.2624 274.559 32.6986C277.982 27.0436 282.579 22.8936 288.349 20.2485C294.217 17.5122 300.819 16.1441 308.155 16.1441C315.783 16.1441 322.434 17.5578 328.107 20.3853C333.877 23.1216 338.327 27.3172 341.457 32.9722C344.685 38.536 346.298 45.6048 346.298 54.1784C346.298 63.0258 344.587 70.2769 341.164 75.9319C337.838 81.4957 333.241 85.6001 327.373 88.2452C321.603 90.8903 315.05 92.2128 307.715 92.2128ZM308.301 75.9319C311.333 75.9319 313.876 75.1566 315.93 73.6061C317.984 71.9643 319.549 69.5929 320.625 66.4917C321.701 63.3906 322.238 59.6966 322.238 55.4098C322.238 50.6669 321.652 46.6993 320.478 43.5069C319.304 40.2234 317.593 37.7151 315.343 35.9822C313.192 34.2492 310.551 33.3827 307.421 33.3827C304.487 33.3827 301.993 34.2036 299.939 35.8453C297.885 37.3959 296.32 39.7217 295.244 42.8229C294.169 45.924 293.631 49.6636 293.631 54.0416C293.631 60.9736 294.902 66.3549 297.445 70.1857C300.086 74.0165 303.705 75.9319 308.301 75.9319Z" fill="#D1232A"/>
<path d="M46.2125 204.401C37.997 204.401 30.9551 203.169 25.0868 200.707C19.2185 198.244 14.4261 194.824 10.7096 190.445C6.99301 186.067 4.25449 181.096 2.49401 175.533C0.831337 169.878 0 163.903 0 157.61C0 151.134 0.880239 145.023 2.64072 139.277C4.40119 133.531 7.09081 128.514 10.7096 124.227C14.4261 119.849 19.1696 116.429 24.9401 113.966C30.7106 111.504 37.6547 110.272 45.7724 110.272C52.8143 110.272 58.8782 111.23 63.964 113.145C69.0499 114.97 73.1087 117.523 76.1407 120.807C79.2704 123.999 81.4221 127.693 82.5957 131.889C83.7694 136.085 84.0628 140.463 83.476 145.023L61.6167 147.486C61.8123 143.564 61.2744 140.189 60.0029 137.362C58.8293 134.534 56.971 132.345 54.4281 130.794C51.983 129.244 48.8533 128.469 45.0389 128.469C41.8113 128.469 38.9261 129.061 36.3832 130.247C33.9381 131.433 31.8353 133.211 30.0748 135.583C28.4122 137.954 27.1407 140.919 26.2605 144.476C25.3802 147.942 24.9401 152.001 24.9401 156.652C24.9401 162.672 25.7225 167.917 27.2874 172.386C28.8523 176.764 31.2485 180.184 34.476 182.647C37.7036 185.018 41.7624 186.204 46.6527 186.204C51.1517 186.204 54.6726 185.247 57.2155 183.331C59.8562 181.416 61.7145 178.771 62.7904 175.396C63.8662 172.021 64.2085 168.236 63.8173 164.04L86.2634 165.819C86.7524 170.835 86.3612 175.67 85.0898 180.321C83.9161 184.882 81.7155 188.986 78.488 192.634C75.3582 196.283 71.1037 199.156 65.7245 201.254C60.4431 203.352 53.9391 204.401 46.2125 204.401Z" fill="#2B3F8C"/>
<path d="M87.703 202.485V106.715H111.469V124.775C111.469 126.69 111.323 129.244 111.029 132.436C110.834 135.537 110.491 138.866 110.002 142.424C109.611 145.981 109.171 149.401 108.682 152.685C108.291 155.877 107.948 158.568 107.655 160.757H108.975C109.856 153.186 111.372 147.03 113.523 142.287C115.675 137.453 118.609 133.941 122.326 131.752C126.042 129.472 130.541 128.332 135.823 128.332C144.136 128.332 150.298 131.114 154.308 136.677C158.318 142.15 160.323 150.45 160.323 161.578V202.485H136.556V162.535C136.556 157.428 135.823 153.688 134.356 151.317C132.889 148.945 130.492 147.759 127.167 147.759C124.233 147.759 121.592 148.808 119.245 150.906C116.898 152.913 114.99 156.151 113.523 160.62C112.154 165.089 111.469 170.881 111.469 177.995V202.485H87.703Z" fill="#2B3F8C"/>
<path d="M163.48 202.485V106.715H187.247V124.775C187.247 126.69 187.1 129.244 186.807 132.436C186.611 135.537 186.269 138.866 185.78 142.424C185.388 145.981 184.948 149.401 184.459 152.685C184.068 155.877 183.726 158.568 183.432 160.757H184.753C185.633 153.186 187.149 147.03 189.301 142.287C191.452 137.453 194.386 133.941 198.103 131.752C201.82 129.472 206.319 128.332 211.6 128.332C219.913 128.332 226.075 131.114 230.085 136.677C234.095 142.15 236.1 150.45 236.1 161.578V202.485H212.334V162.535C212.334 157.428 211.6 153.688 210.133 151.317C208.666 148.945 206.27 147.759 202.944 147.759C200.01 147.759 197.369 148.808 195.022 150.906C192.675 152.913 190.768 156.151 189.301 160.62C187.931 165.089 187.247 170.881 187.247 177.995V202.485H163.48Z" fill="#2B3F8C"/>
<path d="M259.793 204.401C255.881 204.401 252.164 203.762 248.643 202.485C245.122 201.208 242.237 199.156 239.988 196.328C237.738 193.41 236.613 189.533 236.613 184.699C236.613 180.23 237.543 176.627 239.401 173.891C241.259 171.063 243.753 168.829 246.883 167.187C250.013 165.454 253.436 164.177 257.152 163.356C260.869 162.444 264.537 161.669 268.155 161.03C273.241 160.118 277.056 159.389 279.598 158.841C282.141 158.294 283.853 157.656 284.733 156.926C285.711 156.196 286.2 155.193 286.2 153.916C286.2 151.271 285.124 149.264 282.973 147.896C280.919 146.528 278.18 145.844 274.757 145.844C272.605 145.844 270.454 146.209 268.302 146.939C266.15 147.668 264.39 148.991 263.021 150.906C261.651 152.73 261.016 155.375 261.113 158.841L239.988 157.473C239.792 151.727 240.721 146.984 242.775 143.245C244.829 139.414 247.616 136.449 251.137 134.352C254.756 132.163 258.668 130.612 262.874 129.7C267.177 128.788 271.432 128.332 275.637 128.332C283.364 128.332 289.721 129.7 294.709 132.436C299.697 135.081 303.365 138.958 305.712 144.065C308.157 149.082 309.38 155.193 309.38 162.399V175.259C309.38 178.269 309.38 181.324 309.38 184.426C309.38 187.436 309.38 190.445 309.38 193.455C309.38 196.465 309.38 199.475 309.38 202.485H288.841C288.841 199.202 288.841 195.872 288.841 192.498C288.841 189.123 288.841 185.566 288.841 181.826H287.961C287.57 185.931 286.102 189.716 283.56 193.182C281.114 196.556 277.838 199.293 273.73 201.391C269.72 203.397 265.074 204.401 259.793 204.401ZM269.622 188.256C271.285 188.256 273.046 187.983 274.904 187.436C276.86 186.797 278.669 185.794 280.332 184.426C282.092 183.057 283.511 181.188 284.586 178.816C285.662 176.354 286.2 173.344 286.2 169.786V166.503L290.161 166.093C289.379 167.278 288.059 168.236 286.2 168.966C284.44 169.695 282.435 170.288 280.185 170.744C277.936 171.109 275.637 171.519 273.29 171.976C271.041 172.34 268.938 172.888 266.982 173.617C265.026 174.256 263.412 175.168 262.14 176.354C260.967 177.448 260.38 178.999 260.38 181.005C260.38 183.377 261.26 185.201 263.021 186.478C264.879 187.664 267.08 188.256 269.622 188.256Z" fill="#2B3F8C"/>
<path fill-rule="evenodd" clip-rule="evenodd" d="M324.988 164.998C324.206 168.099 324.108 171.976 324.695 176.627H343.913C343.62 173.526 344.011 170.927 345.087 168.829C346.163 166.731 347.63 164.907 349.488 163.356C351.444 161.806 353.498 160.301 355.65 158.841C357.899 157.382 360.051 155.74 362.105 153.916C364.159 152.001 365.821 149.675 367.093 146.939C368.364 144.111 369 140.599 369 136.404C369 131.661 368.12 127.785 366.359 124.775C364.697 121.673 362.398 119.256 359.464 117.523C356.628 115.79 353.449 114.559 349.928 113.829C346.505 113.1 343.033 112.735 339.512 112.735C336.48 112.735 333.497 112.963 330.563 113.419C327.727 113.875 324.939 114.559 322.201 115.471C319.56 116.383 316.968 117.569 314.425 119.028L315.452 139.824C317.506 138.456 319.756 137.27 322.201 136.267C324.646 135.172 327.14 134.306 329.683 133.668C332.226 133.029 334.573 132.71 336.725 132.71C339.463 132.71 341.713 133.303 343.473 134.488C345.234 135.674 346.114 137.453 346.114 139.824C346.114 141.74 345.527 143.381 344.353 144.749C343.18 146.026 341.664 147.258 339.805 148.443C338.045 149.538 336.138 150.769 334.084 152.137C332.128 153.506 330.318 155.239 328.656 157.336C327.091 159.343 325.868 161.897 324.988 164.998Z" fill="#D1232A"/>
<path d="M335.551 207C330.563 207 326.797 205.997 324.255 203.99C321.809 201.983 320.587 198.882 320.587 194.687C320.587 190.4 321.809 187.253 324.255 185.246C326.797 183.24 330.563 182.237 335.551 182.237C340.637 182.237 344.451 183.24 346.994 185.246C349.537 187.253 350.808 190.4 350.808 194.687C350.808 202.896 345.723 207 335.551 207Z" fill="#2B3F8C"/>
</svg>
