<svg width="746" height="104" viewBox="0 0 746 104" fill="none" xmlns="http://www.w3.org/2000/svg">
<path d="M0 101.983V6.91412H23.6991V47.9668C28.5076 46.1422 32.7764 43.7895 36.5054 40.9086C40.3326 37.9317 43.62 34.6186 46.3678 30.9695C49.2136 27.2244 51.5688 23.2872 53.4333 19.1579C55.2978 15.0286 56.6717 10.9474 57.5549 6.91412H84.6396C83.462 12.0037 81.6465 16.9012 79.1932 21.6066C76.838 26.3121 73.894 30.7295 70.3612 34.8587C66.9266 38.988 63.0013 42.6371 58.5853 45.8061C54.2674 48.9751 49.5571 51.5198 44.4542 53.4404V55.0249C49.8515 54.7368 54.4146 55.169 58.1437 56.3213C61.8727 57.3777 65.013 59.0102 67.5644 61.2188C70.1159 63.4275 72.2258 66.0203 73.894 68.9972C75.5623 71.8781 76.9852 75.0951 78.1628 78.6482L86.2587 101.983H59.6157L54.0221 81.6731C53.0408 77.928 51.6669 74.9511 49.9005 72.7424C48.1342 70.4377 45.828 68.8052 42.9822 67.8449C40.1363 66.7885 36.5545 66.2604 32.2366 66.2604H23.6991V101.983H0Z" fill="#D1232A"/>
<path d="M107.537 104C103.514 104 99.7355 103.28 96.2027 101.839C92.7681 100.303 89.9713 97.9981 87.8124 94.9252C85.7516 91.8523 84.7212 87.867 84.7212 82.9695C84.7212 78.3601 85.6044 74.615 87.3708 71.7341C89.2353 68.8532 91.7377 66.5485 94.878 64.8199C98.1163 63.0914 101.796 61.747 105.918 60.7867C110.039 59.7304 114.357 58.8181 118.871 58.0499C123.091 57.2816 126.33 56.6574 128.587 56.1773C130.942 55.6971 132.561 55.0249 133.444 54.1607C134.425 53.2964 134.916 52.096 134.916 50.5596C134.916 47.9668 133.935 45.9021 131.972 44.3657C130.009 42.7331 127.213 41.9169 123.582 41.9169C121.227 41.9169 118.92 42.349 116.663 43.2133C114.505 44.0776 112.689 45.47 111.217 47.3906C109.745 49.3112 108.911 51.856 108.715 55.0249L87.6652 51.7119C88.0577 46.5263 89.3334 42.157 91.4924 38.6039C93.6513 34.9548 96.4481 32.0739 99.8827 29.9612C103.317 27.8486 107.145 26.3121 111.364 25.3518C115.584 24.3915 119.902 23.9113 124.318 23.9113C132.168 23.9113 138.547 25.2558 143.454 27.9446C148.458 30.6334 152.138 34.6186 154.494 39.9003C156.947 45.0859 158.174 51.5679 158.174 59.3463V72.1662C158.174 75.4312 158.174 78.7442 158.174 82.1053C158.272 85.4663 158.37 88.7793 158.468 92.0443C158.566 95.3093 158.713 98.6223 158.91 101.983H138.155C137.958 99.0065 137.762 95.8375 137.566 92.4765C137.468 89.1154 137.419 85.6103 137.419 81.9612H135.652C134.867 85.9945 133.199 89.6916 130.647 93.0526C128.096 96.4137 124.858 99.1025 120.932 101.119C117.105 103.04 112.64 104 107.537 104ZM117.841 87.2909C119.509 87.2909 121.276 87.0028 123.14 86.4266C125.005 85.7544 126.771 84.7461 128.439 83.4017C130.206 82.0572 131.678 80.3287 132.855 78.2161C134.033 76.0074 134.769 73.4146 135.063 70.4377V63.8116H138.596C137.419 64.964 135.799 65.9243 133.739 66.6925C131.776 67.4608 129.666 68.0369 127.409 68.4211C125.152 68.8052 122.895 69.2373 120.638 69.7175C118.381 70.1016 116.32 70.6777 114.455 71.446C112.591 72.1182 111.07 73.0305 109.892 74.1828C108.813 75.3352 108.273 76.9677 108.273 79.0803C108.273 81.6731 109.156 83.6898 110.923 85.1302C112.787 86.5706 115.093 87.2909 117.841 87.2909Z" fill="#D1232A"/>
<path d="M198.279 104C193.077 104 188.269 103.52 183.853 102.56C179.535 101.599 175.757 100.111 172.519 98.0942C169.28 96.0776 166.729 93.4848 164.864 90.3158C163.098 87.0508 162.166 83.2576 162.067 78.9363L181.645 74.759C182.038 77.3518 182.921 79.6085 184.295 81.5291C185.767 83.4497 187.729 84.9381 190.183 85.9945C192.734 86.9548 195.825 87.4349 199.456 87.4349C202.891 87.4349 205.688 86.9067 207.846 85.8504C210.104 84.7941 211.232 83.1136 211.232 80.8089C211.232 79.4644 210.741 78.3601 209.76 77.4958C208.779 76.6316 207.16 75.8633 204.902 75.1911C202.645 74.4229 199.554 73.6066 195.629 72.7424C191.213 71.6861 186.993 70.5817 182.97 69.4294C179.044 68.277 175.561 66.8366 172.519 65.108C169.575 63.3795 167.219 61.1708 165.453 58.482C163.785 55.7932 162.951 52.3841 162.951 48.2548C162.951 43.2613 164.325 38.94 167.072 35.2909C169.82 31.6417 173.745 28.8569 178.848 26.9363C183.951 24.9197 189.937 23.9113 196.807 23.9113C202.989 23.9113 208.632 24.7756 213.734 26.5041C218.837 28.2327 222.91 30.9695 225.952 34.7147C229.092 38.3638 230.711 43.1173 230.81 48.9751L210.938 52.5762C210.938 50.1754 210.3 48.0628 209.024 46.2382C207.846 44.4137 206.129 43.0692 203.872 42.205C201.713 41.2447 199.113 40.7645 196.071 40.7645C192.538 40.7645 189.79 41.3407 187.827 42.4931C185.963 43.6454 185.031 45.1819 185.031 47.1025C185.031 48.5429 185.619 49.7913 186.797 50.8476C188.073 51.8079 189.937 52.6722 192.391 53.4404C194.942 54.1126 198.131 54.8329 201.958 55.6011C205.491 56.3693 209.073 57.2816 212.704 58.3379C216.433 59.2982 219.868 60.6427 223.008 62.3712C226.148 64.0997 228.651 66.4044 230.515 69.2853C232.478 72.0702 233.459 75.6713 233.459 80.0886C233.459 84.8901 232.085 89.1154 229.338 92.7645C226.59 96.4137 222.615 99.1985 217.414 101.119C212.213 103.04 205.835 104 198.279 104Z" fill="#D1232A"/>
<path d="M268.238 103.712C259.014 103.712 252.194 101.407 247.778 96.7978C243.46 92.1884 241.301 84.8901 241.301 74.903V44.0776H231.733L231.88 28.0886H235.266C240.172 27.6085 243.705 26.2161 245.864 23.9113C248.121 21.6066 249.495 18.0055 249.986 13.108L250.722 8.7867H264.411V25.928H282.664V44.6537H264.411V73.1745C264.411 76.7276 265.294 79.2724 267.061 80.8089C268.827 82.3453 271.182 83.1136 274.126 83.1136C275.696 83.1136 277.218 82.9215 278.69 82.5374C280.26 82.1533 281.683 81.6251 282.958 80.9529V101.695C279.818 102.56 277.021 103.088 274.568 103.28C272.115 103.568 270.005 103.712 268.238 103.712Z" fill="#D1232A"/>
<path d="M322.127 104C314.473 104 307.702 102.56 301.814 99.6787C295.926 96.7018 291.313 92.2364 287.977 86.2825C284.738 80.3287 283.119 72.8864 283.119 63.9557C283.119 54.8329 284.788 47.3426 288.124 41.4848C291.559 35.5309 296.22 31.1136 302.108 28.2327C308.094 25.3518 314.865 23.9113 322.421 23.9113C330.174 23.9113 336.994 25.3998 342.882 28.3767C348.77 31.2576 353.333 35.675 356.572 41.6288C359.908 47.4866 361.576 54.9289 361.576 63.9557C361.576 73.1745 359.859 80.7608 356.424 86.7147C352.99 92.6685 348.279 97.0378 342.293 99.8227C336.405 102.608 329.683 104 322.127 104ZM322.863 87.0028C326.102 87.0028 328.8 86.1865 330.959 84.554C333.118 82.9215 334.737 80.4728 335.817 77.2078C336.994 73.9427 337.583 69.9575 337.583 65.2521C337.583 60.2585 336.945 56.0332 335.669 52.5762C334.492 49.1191 332.725 46.4783 330.37 44.6537C328.113 42.8292 325.267 41.9169 321.833 41.9169C318.692 41.9169 315.994 42.7331 313.737 44.3657C311.578 45.9982 309.91 48.4469 308.732 51.7119C307.653 54.9769 307.113 58.9621 307.113 63.6676C307.113 71.2539 308.487 77.0637 311.234 81.0969C313.982 85.0342 317.858 87.0028 322.863 87.0028Z" fill="#D1232A"/>
<path d="M411.913 104C403.964 104 396.997 102.848 391.011 100.543C385.024 98.1422 380.069 94.7331 376.143 90.3158C372.218 85.8984 369.274 80.7128 367.311 74.759C365.349 68.8052 364.367 62.2271 364.367 55.0249C364.367 47.6307 365.349 40.9086 367.311 34.8587C369.372 28.7128 372.316 23.3832 376.143 18.8698C380.069 14.3564 384.926 10.8994 390.716 8.49861C396.506 6.09787 403.277 4.8975 411.03 4.8975C417.506 4.8975 423.198 5.76177 428.105 7.4903C433.011 9.21883 437.084 11.6196 440.322 14.6925C443.561 17.7655 445.916 21.3666 447.388 25.4958C448.86 29.6251 449.449 34.0905 449.154 38.892L427.222 42.7812C427.32 38.7479 426.633 35.3389 425.161 32.554C423.787 29.7692 421.824 27.6565 419.273 26.2161C416.721 24.6796 413.728 23.9113 410.294 23.9113C407.35 23.9113 404.602 24.4875 402.051 25.6399C399.499 26.7922 397.291 28.6168 395.427 31.1136C393.562 33.5143 392.09 36.5873 391.011 40.3324C389.931 44.0776 389.391 48.5429 389.391 53.7285C389.391 60.5466 390.275 66.3084 392.041 71.0138C393.905 75.6233 396.555 79.1283 399.99 81.5291C403.522 83.9298 407.693 85.1302 412.502 85.1302C417.212 85.1302 420.892 84.0739 423.542 81.9612C426.289 79.8486 428.203 77.1117 429.282 73.7507C430.362 70.2936 430.803 66.5485 430.607 62.5152L452.393 64.964C452.687 70.2456 452.147 75.2392 450.773 79.9446C449.498 84.554 447.241 88.6833 444.002 92.3324C440.862 95.9815 436.642 98.8624 431.343 100.975C426.044 102.992 419.567 104 411.913 104Z" fill="#2B3F8C"/>
<path d="M456.709 101.983V0H480.408V20.8864C480.408 22.903 480.31 25.3518 480.113 28.2327C479.917 31.0175 479.623 33.9464 479.23 37.0194C478.838 40.0923 478.396 43.1173 477.905 46.0942C477.513 48.9751 477.169 51.5199 476.875 53.7285H479.083C480.162 47.1025 481.732 41.5808 483.793 37.1634C485.952 32.7461 488.798 29.4331 492.331 27.2244C495.962 25.0157 500.378 23.9113 505.579 23.9113C514.313 23.9113 520.789 26.9363 525.009 32.9861C529.229 38.94 531.339 48.0628 531.339 60.3546V101.983H507.492V62.5152C507.492 56.0812 506.56 51.3758 504.696 48.3989C502.929 45.3259 500.132 43.7895 496.305 43.7895C493.067 43.7895 490.27 44.8938 487.915 47.1025C485.56 49.2151 483.695 52.4321 482.321 56.7535C481.046 61.0748 480.408 66.4044 480.408 72.7424V101.983H456.709Z" fill="#2B3F8C"/>
<path d="M538.22 101.983V0H561.919V20.8864C561.919 22.903 561.821 25.3518 561.625 28.2327C561.429 31.0175 561.134 33.9464 560.742 37.0194C560.349 40.0923 559.908 43.1173 559.417 46.0942C559.024 48.9751 558.681 51.5199 558.386 53.7285H560.594C561.674 47.1025 563.244 41.5808 565.305 37.1634C567.464 32.7461 570.31 29.4331 573.842 27.2244C577.473 25.0157 581.889 23.9113 587.09 23.9113C595.824 23.9113 602.301 26.9363 606.521 32.9861C610.74 38.94 612.85 48.0628 612.85 60.3546V101.983H589.004V62.5152C589.004 56.0812 588.072 51.3758 586.207 48.3989C584.441 45.3259 581.644 43.7895 577.817 43.7895C574.578 43.7895 571.782 44.8938 569.426 47.1025C567.071 49.2151 565.207 52.4321 563.833 56.7535C562.557 61.0748 561.919 66.4044 561.919 72.7424V101.983H538.22Z" fill="#2B3F8C"/>
<path d="M639.306 104C635.282 104 631.504 103.28 627.971 101.839C624.537 100.303 621.74 97.9981 619.581 94.9252C617.52 91.8523 616.49 87.867 616.49 82.9695C616.49 78.3601 617.373 74.615 619.139 71.7341C621.004 68.8532 623.506 66.5485 626.647 64.8199C629.885 63.0914 633.565 61.747 637.687 60.7867C641.808 59.7304 646.126 58.8181 650.64 58.0499C654.86 57.2816 658.098 56.6574 660.355 56.1773C662.71 55.6971 664.33 55.0249 665.213 54.1607C666.194 53.2964 666.685 52.096 666.685 50.5596C666.685 47.9668 665.703 45.9021 663.741 44.3657C661.778 42.7331 658.981 41.9169 655.35 41.9169C652.995 41.9169 650.689 42.349 648.432 43.2133C646.273 44.0776 644.458 45.47 642.986 47.3906C641.514 49.3112 640.68 51.856 640.483 55.0249L619.434 51.7119C619.826 46.5263 621.102 42.157 623.261 38.6039C625.42 34.9548 628.217 32.0739 631.651 29.9612C635.086 27.8486 638.913 26.3121 643.133 25.3518C647.353 24.3915 651.67 23.9113 656.086 23.9113C663.937 23.9113 670.316 25.2558 675.222 27.9446C680.227 30.6334 683.907 34.6186 686.262 39.9003C688.716 45.0859 689.942 51.5679 689.942 59.3463V72.1662C689.942 75.4312 689.942 78.7442 689.942 82.1053C690.04 85.4663 690.139 88.7793 690.237 92.0443C690.335 95.3093 690.482 98.6223 690.678 101.983H669.923C669.727 99.0065 669.531 95.8375 669.334 92.4765C669.236 89.1154 669.187 85.6103 669.187 81.9612H667.421C666.636 85.9945 664.967 89.6916 662.416 93.0526C659.865 96.4137 656.626 99.1025 652.701 101.119C648.874 103.04 644.409 104 639.306 104ZM649.61 87.2909C651.278 87.2909 653.044 87.0028 654.909 86.4266C656.773 85.7544 658.54 84.7461 660.208 83.4017C661.974 82.0572 663.446 80.3287 664.624 78.2161C665.802 76.0074 666.538 73.4146 666.832 70.4377V63.8116H670.365C669.187 64.964 667.568 65.9243 665.507 66.6925C663.545 67.4608 661.435 68.0369 659.178 68.4211C656.921 68.8052 654.664 69.2373 652.406 69.7175C650.149 70.1016 648.089 70.6777 646.224 71.446C644.36 72.1182 642.839 73.0305 641.661 74.1828C640.581 75.3352 640.042 76.9677 640.042 79.0803C640.042 81.6731 640.925 83.6898 642.691 85.1302C644.556 86.5706 646.862 87.2909 649.61 87.2909Z" fill="#2B3F8C"/>
<path fill-rule="evenodd" clip-rule="evenodd" d="M701.693 59.4903C700.81 62.4672 700.614 66.2604 701.104 70.8698H720.24C720.044 67.7969 720.485 65.2521 721.565 63.2355C722.742 61.1228 724.313 59.2982 726.275 57.7618C728.238 56.1293 730.348 54.5448 732.605 53.0083C734.862 51.4718 737.021 49.7433 739.082 47.8227C741.142 45.9021 742.811 43.5494 744.086 40.7645C745.362 37.8837 746 34.2825 746 29.9612C746 25.1597 745.166 21.1745 743.498 18.0055C741.829 14.7405 739.523 12.1477 736.579 10.2271C733.733 8.30655 730.495 6.91413 726.864 6.04986C723.233 5.08956 719.504 4.60941 715.677 4.60941C712.831 4.60941 709.936 4.84949 706.992 5.32964C704.048 5.80979 701.202 6.53001 698.455 7.4903C695.707 8.35457 693.008 9.50692 690.359 10.9474L691.389 31.9778C693.548 30.6334 695.854 29.4811 698.307 28.5208C700.761 27.4644 703.263 26.6482 705.815 26.072C708.366 25.3998 710.721 25.0637 712.88 25.0637C715.922 25.0637 718.376 25.7359 720.24 27.0803C722.105 28.4247 723.037 30.4894 723.037 33.2742C723.037 35.4829 722.448 37.3555 721.27 38.892C720.093 40.3324 718.572 41.6768 716.707 42.9252C714.941 44.1736 713.027 45.518 710.966 46.9584C709.004 48.3029 707.188 49.9834 705.52 52C703.852 54.0166 702.576 56.5134 701.693 59.4903Z" fill="#D1232A"/>
<path d="M711.85 103.856C706.845 103.856 703.067 102.8 700.515 100.687C698.062 98.5743 696.835 95.3093 696.835 90.892C696.835 86.3786 698.062 83.0656 700.515 80.9529C703.067 78.8402 706.845 77.7839 711.85 77.7839C716.953 77.7839 720.78 78.8402 723.331 80.9529C725.883 83.0656 727.158 86.3786 727.158 90.892C727.158 99.5346 722.056 103.856 711.85 103.856Z" fill="#2B3F8C"/>
</svg>
